<svg xmlns="http://www.w3.org/2000/svg" width="21" height="18"><path d="M7.026 17.26c7.531 0 11.651-6.357 11.651-11.868 0-.18 0-.361-.012-.539a8.415 8.415 0 0 0 2.043-2.16 8.058 8.058 0 0 1-2.352.657 4.176 4.176 0 0 0 1.8-2.308 8.114 8.114 0 0 1-2.6 1.013 4.045 4.045 0 0 0-5.793-.181 4.225 4.225 0 0 0-1.185 3.986 11.554 11.554 0 0 1-8.44-4.36 4.222 4.222 0 0 0 1.268 5.57 4.021 4.021 0 0 1-1.859-.522V6.6a4.155 4.155 0 0 0 3.285 4.09 4.02 4.02 0 0 1-1.849.071 4.109 4.109 0 0 0 3.826 2.9 8.122 8.122 0 0 1-5.085 1.789 8.209 8.209 0 0 1-.975-.06 11.437 11.437 0 0 0 6.277 1.87" fill="#fff" fill-rule="evenodd"/></svg>