<svg xmlns="http://www.w3.org/2000/svg" width="19.875" height="20.38"><path d="M6.608 10.17a3.3 3.3 0 1 1 3.3 3.37 3.334 3.334 0 0 1-3.3-3.37m-1.782 0a5.08 5.08 0 1 0 5.078-5.2 5.132 5.132 0 0 0-5.078 5.2m9.171-5.4a1.187 1.187 0 1 0 1.187-1.22 1.2 1.2 0 0 0-1.187 1.22M5.908 18.4a5.27 5.27 0 0 1-1.837-.34 3.3 3.3 0 0 1-1.877-1.92c-.588-1.55-.393-8.87-.34-10.06a4.395 4.395 0 0 1 1.08-3.04c.989-1.01 2.267-1.51 10.967-1.11a4.208 4.208 0 0 1 2.974 1.11c.989 1.01 1.479 2.33 1.08 11.22a5.8 5.8 0 0 1-.34 1.88c-.895 2.35-2.954 2.68-11.707 2.26M5.827.11a5.839 5.839 0 0 0-4.153 1.64A6.123 6.123 0 0 0 .074 6c-.046 1.02-.312 8.77.459 10.8a5.094 5.094 0 0 0 2.893 2.96 7.4 7.4 0 0 0 2.4.47c8.806.4 12.071.18 13.448-3.43a7.609 7.609 0 0 0 .459-2.46c.4-9.05-.065-11.02-1.6-12.59C16.915.5 15.484-.34 5.826.11" fill="#2376cf" fill-rule="evenodd"/></svg>