<svg xmlns="http://www.w3.org/2000/svg" width="19.969" height="16.5"><path d="M6.276 16.51c7.531 0 11.65-6.36 11.65-11.87 0-.18 0-.36-.012-.54a8.37 8.37 0 0 0 2.043-2.16 8.047 8.047 0 0 1-2.352.66 4.163 4.163 0 0 0 1.8-2.31 7.929 7.929 0 0 1-2.6 1.01 4.045 4.045 0 0 0-5.793-.18 4.232 4.232 0 0 0-1.185 3.99A11.549 11.549 0 0 1 1.388.75a4.221 4.221 0 0 0 1.268 5.57A4.052 4.052 0 0 1 .797 5.8v.05a4.15 4.15 0 0 0 3.286 4.09 3.987 3.987 0 0 1-1.849.07 4.119 4.119 0 0 0 3.825 2.9A8.137 8.137 0 0 1 .974 14.7a7.938 7.938 0 0 1-.975-.06 11.5 11.5 0 0 0 6.277 1.87" fill="#2376cf" fill-rule="evenodd"/></svg>